<svg width="40" height="41" viewBox="0 0 40 41" fill="none" xmlns="http://www.w3.org/2000/svg">
<path fill-rule="evenodd" clip-rule="evenodd" d="M29.8127 17.0641C29.8127 17.0641 29.997 18 30.0599 18.009C33.4537 18.4929 36 20.4725 36 24C36 27.866 32.866 31 29 31H11C7.13401 31 4 27.866 4 24C4 20.4725 6.60923 17.5544 10.003 17.0705C10.0659 17.0615 10.1275 17.0596 10.1873 17.0641C11.0889 12.4677 15.1395 9 20 9C24.8605 9 28.9111 12.4677 29.8127 17.0641Z" fill="#F3F3F3"/>
<path d="M29 31H29.4118C33.0503 31 36 28.1272 36 24.5833C36 21.3383 33.5268 18.6559 30.3161 18.2266C29.8697 13.0587 25.4215 9 20 9C15.2043 9 11.1702 12.1758 9.99378 16.486C6.57182 17.1766 4 20.1291 4 23.6667C4 27.5434 7.08864 30.7175 11 30.9822" stroke="#231815" stroke-linecap="round" stroke-linejoin="round"/>
<path d="M17 30.5C17 31.3284 16.3284 32 15.5 32C14.6716 32 14 31.3284 14 30.5C14 29.6716 14.6716 29 15.5 29C16.3284 29 17 29.6716 17 30.5Z" fill="#231815"/>
<path d="M21.5 32.5C21.5 33.3284 20.8284 34 20 34C19.1716 34 18.5 33.3284 18.5 32.5C18.5 31.6716 19.1716 31 20 31C20.8284 31 21.5 31.6716 21.5 32.5Z" fill="#231815"/>
<path d="M21.5 27.5C21.5 28.3284 20.8284 29 20 29C19.1716 29 18.5 28.3284 18.5 27.5C18.5 26.6716 19.1716 26 20 26C20.8284 26 21.5 26.6716 21.5 27.5Z" fill="#231815"/>
<path d="M26 30.5C26 31.3284 25.3284 32 24.5 32C23.6716 32 23 31.3284 23 30.5C23 29.6716 23.6716 29 24.5 29C25.3284 29 26 29.6716 26 30.5Z" fill="#231815"/>
<path d="M17 34.5C17 35.3284 16.3284 36 15.5 36C14.6716 36 14 35.3284 14 34.5C14 33.6716 14.6716 33 15.5 33C16.3284 33 17 33.6716 17 34.5Z" fill="#231815"/>
<path d="M26 34.5C26 35.3284 25.3284 36 24.5 36C23.6716 36 23 35.3284 23 34.5C23 33.6716 23.6716 33 24.5 33C25.3284 33 26 33.6716 26 34.5Z" fill="#231815"/>
</svg>
