<svg width="40" height="40" viewBox="0 0 40 40" fill="none" xmlns="http://www.w3.org/2000/svg">
<path fill-rule="evenodd" clip-rule="evenodd" d="M29.8127 16.6479C29.8127 16.6479 29.997 17.561 30.0599 17.5697C33.4537 18.0419 36 19.9732 36 23.4146C36 27.1863 32.866 30.2439 29 30.2439H11C7.13401 30.2439 4 27.1863 4 23.4146C4 19.9732 6.60923 17.1263 10.003 16.6541C10.0659 16.6454 10.1275 16.6435 10.1873 16.6479C11.0889 12.1636 15.1395 8.78049 20 8.78049C24.8605 8.78049 28.9111 12.1636 29.8127 16.6479Z" fill="#F3F3F3"/>
<path d="M29 30.2439H29.4118C33.0503 30.2439 36 27.4411 36 23.9837C36 20.8179 33.5268 18.2009 30.3161 17.7821C29.8697 12.7402 25.4215 8.78049 20 8.78049C15.2043 8.78049 11.1702 11.8789 9.99378 16.0839C6.57182 16.7576 4 19.6382 4 23.0894C4 26.8716 7.08864 29.9683 11 30.2265" stroke="white" stroke-linecap="round" stroke-linejoin="round"/>
<path d="M17 29.7561C17 30.5643 16.3284 31.2195 15.5 31.2195C14.6716 31.2195 14 30.5643 14 29.7561C14 28.9479 14.6716 28.2927 15.5 28.2927C16.3284 28.2927 17 28.9479 17 29.7561Z" fill="white"/>
<path d="M21.5 31.7073C21.5 32.5155 20.8284 33.1707 20 33.1707C19.1716 33.1707 18.5 32.5155 18.5 31.7073C18.5 30.8991 19.1716 30.2439 20 30.2439C20.8284 30.2439 21.5 30.8991 21.5 31.7073Z" fill="white"/>
<path d="M21.5 26.8293C21.5 27.6375 20.8284 28.2927 20 28.2927C19.1716 28.2927 18.5 27.6375 18.5 26.8293C18.5 26.0211 19.1716 25.3659 20 25.3659C20.8284 25.3659 21.5 26.0211 21.5 26.8293Z" fill="white"/>
<path d="M26 29.7561C26 30.5643 25.3284 31.2195 24.5 31.2195C23.6716 31.2195 23 30.5643 23 29.7561C23 28.9479 23.6716 28.2927 24.5 28.2927C25.3284 28.2927 26 28.9479 26 29.7561Z" fill="white"/>
<path d="M17 33.6585C17 34.4668 16.3284 35.122 15.5 35.122C14.6716 35.122 14 34.4668 14 33.6585C14 32.8503 14.6716 32.1951 15.5 32.1951C16.3284 32.1951 17 32.8503 17 33.6585Z" fill="white"/>
<path d="M26 33.6585C26 34.4668 25.3284 35.122 24.5 35.122C23.6716 35.122 23 34.4668 23 33.6585C23 32.8503 23.6716 32.1951 24.5 32.1951C25.3284 32.1951 26 32.8503 26 33.6585Z" fill="white"/>
</svg>
